<svg width="24" height="12" viewBox="0 0 24 12" fill="none" xmlns="http://www.w3.org/2000/svg">
<path fill-rule="evenodd" clip-rule="evenodd" d="M6.04734 2.75C5.5835 2.75 5.16667 2.75 5.16667 1.98953V0.75L3 0.75V3.75H0V5.75H4L3 6.25V6.75H1V8.75H5L3.73736 9.38132C4.61702 10.809 6.19707 11.75 8 11.75C9.6356 11.75 11.0878 10.9647 12 9.75048C12.9122 10.9647 14.3644 11.75 16 11.75C17.8029 11.75 19.383 10.809 20.2626 9.38132L19 8.75H23V6.75H21V6.25L20 5.75H24V3.75H21V0.75H18.8333V1.98953C18.8333 2.75 18.3333 2.75 17.9527 2.75H6.04734ZM11 5.75L10 6.25C10 7.35457 9.10457 8.25 8 8.25C6.89543 8.25 6 7.35457 6 6.25L5 5.75H11ZM19 5.75L18 6.25C18 7.35457 17.1046 8.25 16 8.25C14.8954 8.25 14 7.35457 14 6.25L13 5.75H19Z" fill="#F42728"/>
</svg>
