<svg width="19" height="18" viewBox="0 0 19 18" fill="none" xmlns="http://www.w3.org/2000/svg">
<path d="M17.0095 7.78641L16.9301 7.44926H9.60211V10.5507H13.9805C13.5259 12.7093 11.4165 13.8456 9.69352 13.8456C8.43984 13.8456 7.11832 13.3182 6.24363 12.4706C5.78215 12.0163 5.41481 11.4754 5.16265 10.8789C4.91048 10.2824 4.77845 9.64197 4.7741 8.99437C4.7741 7.68797 5.36121 6.38121 6.21551 5.52164C7.0698 4.66207 8.36004 4.18113 9.64289 4.18113C11.1121 4.18113 12.165 4.96125 12.5588 5.31703L14.7627 3.12469C14.1162 2.55656 12.3401 1.125 9.57188 1.125C7.43613 1.125 5.38828 1.94309 3.89133 3.43512C2.41406 4.9043 1.64941 7.02879 1.64941 9C1.64941 10.9712 2.37293 12.9895 3.80449 14.4703C5.33414 16.0495 7.50047 16.875 9.73113 16.875C11.7607 16.875 13.6845 16.0798 15.0555 14.637C16.4034 13.2166 17.1006 11.2514 17.1006 9.19125C17.1006 8.32395 17.0134 7.80891 17.0095 7.78641Z" fill="#E1E2E2"/>
</svg>
