<svg width="16" height="13" viewBox="0 0 16 13" fill="none" xmlns="http://www.w3.org/2000/svg">
<path d="M15.625 1.55749C15.0613 1.81786 14.4651 1.98999 13.855 2.06851C14.4986 1.65915 14.981 1.01516 15.2125 0.255988C14.6077 0.639302 13.9456 0.90937 13.255 1.05445C12.7934 0.521536 12.1787 0.166797 11.5074 0.0458732C10.836 -0.0750503 10.1459 0.0446811 9.54534 0.386289C8.94478 0.727898 8.4677 1.27206 8.18893 1.93343C7.91016 2.59481 7.84547 3.33598 8.005 4.04072C6.78207 3.97486 5.58583 3.63586 4.49399 3.04572C3.40215 2.45558 2.43913 1.62751 1.6675 0.615298C1.39685 1.11847 1.25464 1.68829 1.255 2.26812C1.25404 2.80659 1.37816 3.33696 1.61632 3.81201C1.85447 4.28705 2.19926 4.69203 2.62 4.99089C2.13098 4.97673 1.65241 4.83702 1.225 4.58367V4.6236C1.22867 5.37806 1.477 6.10802 1.92799 6.69C2.37898 7.27198 3.00494 7.67026 3.7 7.81746C3.43244 7.90415 3.15466 7.94985 2.875 7.9532C2.68142 7.95079 2.48832 7.9321 2.2975 7.89731C2.49543 8.54631 2.87847 9.11349 3.39331 9.51992C3.90815 9.92635 4.52918 10.1518 5.17 10.1649C4.0879 11.0714 2.75191 11.5661 1.375 11.5702C1.1243 11.5711 0.873802 11.5551 0.625 11.5223C2.03082 12.4887 3.66911 13.0017 5.3425 12.9995C6.49727 13.0123 7.64285 12.7799 8.71234 12.3161C9.78182 11.8522 10.7538 11.1661 11.5714 10.2979C12.389 9.42965 13.036 8.39666 13.4744 7.25926C13.9129 6.12185 14.134 4.90284 14.125 3.67342C14.125 3.53768 14.125 3.39396 14.125 3.25023C14.7135 2.78298 15.2211 2.21017 15.625 1.55749Z" fill="#E1E2E2"/>
</svg>
