<svg width="94" height="94" viewBox="0 0 94 94" fill="none" xmlns="http://www.w3.org/2000/svg">
<path d="M70.7498 23.3584C57.857 10.4655 36.7969 10.4655 23.904 23.3584C11.0112 36.2512 11.0112 57.3113 23.904 70.2042C30.1707 76.4708 38.492 79.9124 47.3269 79.9124C56.1619 79.9124 64.4832 76.4708 70.7498 70.2042C77.0165 63.9375 80.458 55.6162 80.458 46.7813C80.458 37.9463 76.9651 29.5737 70.7498 23.3584Z" fill="#010101" stroke="#232329" stroke-width="1.35504" stroke-miterlimit="10"/>
<path d="M65.4936 64.9265C75.5235 54.8966 75.5235 38.635 65.4936 28.6052C55.4638 18.5754 39.2022 18.5754 29.1724 28.6052C19.1425 38.635 19.1425 54.8966 29.1724 64.9265C39.2022 74.9563 55.4638 74.9563 65.4936 64.9265Z" stroke="#232329" stroke-width="1.35504" stroke-miterlimit="10" stroke-linecap="round" stroke-linejoin="round"/>
<path d="M39.5193 34.6077C42.0362 32.399 44.7073 30.5498 47.3269 29.1629" stroke="#232329" stroke-width="1.35504" stroke-miterlimit="10" stroke-linecap="round" stroke-linejoin="round"/>
<path d="M29.7085 46.7819C31.5063 43.3918 34.0746 39.8989 37.2593 36.7142" stroke="#232329" stroke-width="1.35504" stroke-miterlimit="10" stroke-linecap="round" stroke-linejoin="round"/>
<path d="M50.6143 27.6216C56.6755 25.2074 62.2744 25.3615 65.4591 28.5975C71.0066 34.1451 67.3596 46.7811 57.3432 56.7975C47.3269 66.8139 34.6908 70.4608 29.1433 64.9133C25.9072 61.6773 25.8045 55.9756 28.3214 49.8117" stroke="#232329" stroke-width="1.35504" stroke-miterlimit="10" stroke-linecap="round" stroke-linejoin="round"/>
<path d="M66.3323 49.8633C68.7978 56.0272 68.6951 61.6775 65.459 64.9649C62.2743 68.1496 56.6754 68.3037 50.6143 65.9409" stroke="#232329" stroke-width="1.35504" stroke-miterlimit="10" stroke-linecap="round" stroke-linejoin="round"/>
<path d="M37.259 56.7974C27.2426 46.7811 23.5956 34.145 29.1432 28.5975C34.6907 23.05 47.3267 26.697 57.3431 36.7133C60.5278 39.898 63.0961 43.3395 64.8939 46.7811" stroke="#232329" stroke-width="1.35504" stroke-miterlimit="10" stroke-linecap="round" stroke-linejoin="round"/>
<path d="M47.3269 64.3488C44.7073 62.9619 42.0362 61.1127 39.5193 58.904" stroke="#232329" stroke-width="1.35504" stroke-miterlimit="10" stroke-linecap="round" stroke-linejoin="round"/>
<path d="M59.6548 59.1091L65.4591 64.9134" stroke="#232329" stroke-width="1.35504" stroke-miterlimit="10" stroke-linecap="round" stroke-linejoin="round"/>
<path d="M57.343 56.7978L54.5692 54.024C50.5627 50.0174 44.0392 50.0174 40.0327 54.024L29.1431 64.9136L40.0327 54.024C44.0392 50.0174 44.0392 43.494 40.0327 39.4874L29.1431 28.5978L40.0327 39.4874C44.0392 43.494 50.5627 43.494 54.5692 39.4874L57.343 36.7136L54.5692 39.4874C50.5627 43.494 50.5627 50.0174 54.5692 54.024L57.343 56.7978Z" fill="#232329" stroke="#232329" stroke-width="1.35504" stroke-miterlimit="10" stroke-linecap="round" stroke-linejoin="round"/>
<path d="M65.4592 28.5978L59.3467 34.7104" stroke="#232329" stroke-width="1.35504" stroke-miterlimit="10" stroke-linecap="round" stroke-linejoin="round"/>
</svg>
